<svg width="422" height="421" viewBox="0 0 422 421" fill="none" xmlns="http://www.w3.org/2000/svg">
<path d="M357.661 343.302V298.631L242.193 415.921C229.334 418.594 216.022 420 202.385 420C181.499 420 161.371 416.706 142.474 410.595C62.752 384.835 5 309.019 5 219.5C5 108.765 93.3705 19 202.385 19C298.624 19 378.773 88.956 396.237 181.539C398.553 193.831 399.769 206.518 399.769 219.5C399.769 266.225 384.036 309.212 357.661 343.302Z" fill="#056A67"/>
<path d="M417.137 181.535V401.818H357.658V298.628L242.191 415.917C229.332 418.59 216.021 419.997 202.383 419.997C181.497 419.997 161.369 416.703 142.473 410.592L308.491 241.953H192.382V181.535H417.137Z" fill="#37ED81"/>
</svg>
