<svg width="422" height="421" viewBox="0 0 422 421" fill="none" xmlns="http://www.w3.org/2000/svg">
<path d="M417.012 215.239C417.012 201.043 415.638 186.39 413.349 172.652H215.07V253.704H328.634C324.055 279.805 308.943 302.701 286.505 317.354L354.277 370.015C394.116 332.923 417.012 278.889 417.012 215.239Z" fill="#4280EF"/>
<path d="M215.074 420.371C271.856 420.371 319.48 401.596 354.281 369.542L286.509 317.339C267.735 330.161 243.465 337.488 215.074 337.488C160.124 337.488 113.875 300.396 96.9316 250.941L27.3281 304.518C63.0457 375.495 135.397 420.371 215.074 420.371Z" fill="#34A353"/>
<path d="M96.9269 250.487C88.2265 224.386 88.2265 195.995 96.9269 169.894L27.3235 115.859C-2.44116 175.389 -2.44116 245.45 27.3235 304.521L96.9269 250.487Z" fill="#F6B704"/>
<path d="M215.074 83.349C244.839 82.8911 274.146 94.339 295.668 114.945L355.655 54.5002C317.648 18.7826 267.277 -0.449926 215.074 0.00799198C135.397 0.00799198 63.0457 44.8839 27.3281 115.861L96.9316 169.895C113.875 119.982 160.124 83.349 215.074 83.349Z" fill="#E54335"/>
</svg>
